<svg xmlns="http://www.w3.org/2000/svg" xmlns:xlink="http://www.w3.org/1999/xlink" version="1.1" x="0px" y="0px" viewBox="0 0 512 640" style="enable-background:new 0 0 512 512;" xml:space="preserve"><style type="text/css">
	.st0{display:none;}
	.st1{display:inline;fill:none;stroke:#000000;stroke-width:0.1;stroke-miterlimit:10;}
</style><g class="st0"><rect x="-49" y="141" class="st1" width="512" height="512"/><line class="st1" x1="-49" y1="637" x2="463" y2="637"/><line class="st1" x1="-49" y1="621" x2="463" y2="621"/><line class="st1" x1="-49" y1="605" x2="463" y2="605"/><line class="st1" x1="-49" y1="589" x2="463" y2="589"/><line class="st1" x1="-49" y1="573" x2="463" y2="573"/><line class="st1" x1="-49" y1="557" x2="463" y2="557"/><line class="st1" x1="-49" y1="541" x2="463" y2="541"/><line class="st1" x1="-49" y1="525" x2="463" y2="525"/><line class="st1" x1="-49" y1="509" x2="463" y2="509"/><line class="st1" x1="-49" y1="493" x2="463" y2="493"/><line class="st1" x1="-49" y1="477" x2="463" y2="477"/><line class="st1" x1="-49" y1="461" x2="463" y2="461"/><line class="st1" x1="-49" y1="445" x2="463" y2="445"/><line class="st1" x1="-49" y1="429" x2="463" y2="429"/><line class="st1" x1="-49" y1="413" x2="463" y2="413"/><line class="st1" x1="-49" y1="397" x2="463" y2="397"/><line class="st1" x1="-49" y1="381" x2="463" y2="381"/><line class="st1" x1="-49" y1="365" x2="463" y2="365"/><line class="st1" x1="-49" y1="349" x2="463" y2="349"/><line class="st1" x1="-49" y1="333" x2="463" y2="333"/><line class="st1" x1="-49" y1="317" x2="463" y2="317"/><line class="st1" x1="-49" y1="301" x2="463" y2="301"/><line class="st1" x1="-49" y1="285" x2="463" y2="285"/><line class="st1" x1="-49" y1="269" x2="463" y2="269"/><line class="st1" x1="-49" y1="253" x2="463" y2="253"/><line class="st1" x1="-49" y1="237" x2="463" y2="237"/><line class="st1" x1="-49" y1="221" x2="463" y2="221"/><line class="st1" x1="-49" y1="205" x2="463" y2="205"/><line class="st1" x1="-49" y1="189" x2="463" y2="189"/><line class="st1" x1="-49" y1="173" x2="463" y2="173"/><line class="st1" x1="-49" y1="157" x2="463" y2="157"/><line class="st1" x1="447" y1="141" x2="447" y2="653"/><line class="st1" x1="431" y1="141" x2="431" y2="653"/><line class="st1" x1="415" y1="141" x2="415" y2="653"/><line class="st1" x1="399" y1="141" x2="399" y2="653"/><line class="st1" x1="383" y1="141" x2="383" y2="653"/><line class="st1" x1="367" y1="141" x2="367" y2="653"/><line class="st1" x1="351" y1="141" x2="351" y2="653"/><line class="st1" x1="335" y1="141" x2="335" y2="653"/><line class="st1" x1="319" y1="141" x2="319" y2="653"/><line class="st1" x1="303" y1="141" x2="303" y2="653"/><line class="st1" x1="287" y1="141" x2="287" y2="653"/><line class="st1" x1="271" y1="141" x2="271" y2="653"/><line class="st1" x1="255" y1="141" x2="255" y2="653"/><line class="st1" x1="239" y1="141" x2="239" y2="653"/><line class="st1" x1="223" y1="141" x2="223" y2="653"/><line class="st1" x1="207" y1="141" x2="207" y2="653"/><line class="st1" x1="191" y1="141" x2="191" y2="653"/><line class="st1" x1="175" y1="141" x2="175" y2="653"/><line class="st1" x1="159" y1="141" x2="159" y2="653"/><line class="st1" x1="143" y1="141" x2="143" y2="653"/><line class="st1" x1="127" y1="141" x2="127" y2="653"/><line class="st1" x1="111" y1="141" x2="111" y2="653"/><line class="st1" x1="95" y1="141" x2="95" y2="653"/><line class="st1" x1="79" y1="141" x2="79" y2="653"/><line class="st1" x1="63" y1="141" x2="63" y2="653"/><line class="st1" x1="47" y1="141" x2="47" y2="653"/><line class="st1" x1="31" y1="141" x2="31" y2="653"/><line class="st1" x1="15" y1="141" x2="15" y2="653"/><line class="st1" x1="-1" y1="141" x2="-1" y2="653"/><line class="st1" x1="-17" y1="141" x2="-17" y2="653"/><line class="st1" x1="-33" y1="141" x2="-33" y2="653"/></g><g><polygon points="147,185.2 169.4,406 343.4,406 365.7,185.2  "/><path d="M352.3,127.5c-2.5-5.2-7.6-8.5-13.3-8.5c-16.6-0.4-34.7-0.1-55.4,2.2c-2-4.4-5.2-8.2-9.4-10.9c-5.9-3.8-12.9-5.2-19.7-3.7   l-28.6,6.1c-6.8,1.4-12.7,5.4-16.5,11.3c-2.8,4.2-4.2,9.1-4.2,14c-18.8,6.1-34.6,12.8-49,19.6c-4.8,2.3-8,6.9-8.7,12.2   c-0.6,5.1-1.9,10.3-0.9,15L358.4,140L352.3,127.5z M217.8,129.4c2.3-3.6,6-6.1,10.2-7l28.6-6.1c4.2-0.9,8.6-0.1,12.2,2.3   c1.6,1,3,2.4,4.1,3.9c-9.4,1.3-19.3,3.1-29.8,5.4c-9.8,2.1-18.9,4.4-27.4,6.9C216,132.9,216.8,131.1,217.8,129.4z"/></g><text x="0" y="527" fill="#000000" font-size="5px" font-weight="bold" font-family="'Helvetica Neue', Helvetica, Arial-Unicode, Arial, Sans-serif">Created by SBTS</text><text x="0" y="532" fill="#000000" font-size="5px" font-weight="bold" font-family="'Helvetica Neue', Helvetica, Arial-Unicode, Arial, Sans-serif">from the Noun Project</text></svg>